<svg xmlns="http://www.w3.org/2000/svg" xmlns:xlink="http://www.w3.org/1999/xlink" width="160" height="14.46687905983103" viewBox="0 0 160 14.46687905983103" class="css-1j8o68f"><defs id="SvgjsDefs1365"><linearGradient id="SvgjsLinearGradient1368"><stop id="SvgjsStop1369" stop-color="#7f00ff" offset="0"></stop><stop id="SvgjsStop1370" stop-color="#e100ff" offset="1"></stop></linearGradient></defs><g id="SvgjsG1366" featurekey="nameFeature-0" transform="matrix(0.5144694028927325,0,0,0.5144694028927325,-0.5144694028927325,-6.13247679364104)" fill="url(#SvgjsLinearGradient1368)"><path d="M2.44 38.6 l0 -26.6 l-1.44 0 l0 28.04 l7 -0.04 l0 -11.44 l10.96 -13.88 l-1.84 0 l-10.6 13.36 l0 10.56 l-4.08 0 z M6.48 21.28 l1.48 -1.84 l0 -7.44 l-4.24 0 l0 12.84 l1.44 -1.84 l0 -9.52 l1.32 0 l0 7.8 z M24.44 12 l-8.84 0 l-11.88 15.24 l0 10.32 l1.44 0 l0 -9.84 l11.12 -14.24 l5.2 0 l-11.28 14.36 l7.2 9.72 l1.8 0 l-7.16 -9.72 z M21.6 38.6 l-5.08 0 l-7.16 -9.68 l0 2.4 l6.44 8.68 l8.68 0 l-9.8 -13.16 l-0.92 1.16 z M41.415000000000006 37.52 l1.76 0 l1.4 -3.36 l10.44 0.04 l2.56 5.8 l7.36 -0.04 l-12.6 -27.96 l-2.56 0 l-12.52 27.96 l7.8 0 l1.36 -3.2 l7.96 0 l-0.6 -1.36 l-8.24 0 l-1.28 3.16 l-4.76 0 l11.08 -25.2 l0.96 0 l11.12 25.2 l-4.24 0 l-2.56 -5.72 l-12.4 0 z M46.175000000000004 30.48 l4.88 -11.64 l8.2 18.64 l1.64 0 l-9.84 -21.92 l-7.2 16.16 l11.6 0 l-4.4 -9.72 l-3.04 7.32 l1.56 0 l1.48 -3.64 l2.2 4.8 l-7.08 0 z M96.99000000000001 28.6 l-16.36 -16.6 l-2 0 l19.8 20.12 l0 -17.32 l-1.44 0 l0 13.8 z M95.67 25.4 l0 -12 l4.08 0 l0 25.16 l-0.68 0 l-0.16 -0.16 l-18.32 -18.56 l0 20.16 l4.2 0 l0 -11.8 l-1.48 -1.52 l0 11.88 l-1.28 0 l0 -15.2 l16.6 16.64 l2.56 0 l0 -28 l-6.96 0 l0 11.84 z M79.27 40 l0 -23.4 l19.16 19.44 l0 -2.12 l-20.56 -20.76 l0 26.84 l1.4 0 z M134.685 26.119999999999997 c0.92 -1.4 1.4 -3.16 1.4 -5.2 c0 -5.56 -3.28 -8.72 -8.92 -8.72 l-9.24 0 l0 12.04 l9.4 0 c2.12 0 3.4 -1.2 3.4 -3.32 c0 -1.12 -0.4 -2.04 -1.2 -2.8 c-0.52 -0.48 -1.4 -0.76 -2.2 -0.76 l-6.68 0 l0 4.2 l1.44 0 l0 -2.8 l5.24 0 c1.16 0 1.96 0.76 1.96 2.16 c0 1.24 -0.64 1.88 -1.96 1.88 l-8 0 l0 -9.16 l7.64 0 c4.96 0 7.72 2.52 7.72 7.28 c0 1.56 -0.32 2.92 -1 4.16 l-0.4 0.64 l-0.44 0.44 l0.52 0.52 l0.76 0.88 c0.48 0.6 0.72 1.84 0.72 3.76 c0 4.68 -2.8 7.2 -7.88 7.2 l-10.32 0 l0 -26.36 l-1.44 0 l0 27.8 l11.76 0 c5.8 0 9.32 -3.2 9.32 -8.64 c0 -2.08 -0.52 -3.8 -1.6 -5.2 z M127.925 37.36 c1.4 0 2.72 -0.52 3.96 -1.6 c1.16 -1.16 1.76 -2.56 1.76 -4.16 c0 -2 -0.64 -3.56 -1.96 -4.72 l-1.04 -0.76 c1.8 -1 2.88 -2.92 2.88 -5.44 c0 -1.08 -0.24 -2.12 -0.72 -3.04 c-0.96 -1.84 -2.68 -2.84 -4.88 -2.84 l-7.24 0 l0 1.44 l7.24 0 c0.68 0 1.32 0.2 2 0.6 c1.28 0.8 2.12 2.24 2.12 3.84 c0 2.76 -1.68 4.72 -4.24 4.72 l-9.84 0 l0 1.44 l9.84 0 c2.68 0 4.4 1.84 4.4 4.76 c0 1.6 -0.68 2.84 -2.08 3.68 c-0.68 0.4 -1.4 0.6 -2.2 0.6 l-8.6 0 l0 -6.32 l8 0 c1.4 0 2.08 0.64 2.08 1.88 c0 1.28 -0.68 1.92 -2.08 1.92 l-5.24 0 l0 -2.64 l-1.44 0 l0 4.08 l6.68 0 c1.56 0 2.6 -0.56 3.16 -1.72 c0.24 -0.44 0.36 -1 0.36 -1.64 c0 -2.08 -1.4 -3.36 -3.52 -3.36 l-9.4 0 l0 9.28 l10 0 z M153.29999999999998 37.52 l1.76 0 l1.4 -3.36 l10.44 0.04 l2.56 5.8 l7.36 -0.04 l-12.6 -27.96 l-2.56 0 l-12.52 27.96 l7.8 0 l1.36 -3.2 l7.96 0 l-0.6 -1.36 l-8.24 0 l-1.28 3.16 l-4.76 0 l11.08 -25.2 l0.96 0 l11.12 25.2 l-4.24 0 l-2.56 -5.72 l-12.4 0 z M158.05999999999997 30.48 l4.88 -11.64 l8.2 18.64 l1.64 0 l-9.84 -21.92 l-7.2 16.16 l11.6 0 l-4.4 -9.72 l-3.04 7.32 l1.56 0 l1.48 -3.64 l2.2 4.8 l-7.08 0 z M208.87499999999997 28.6 l-16.36 -16.6 l-2 0 l19.8 20.12 l0 -17.32 l-1.44 0 l0 13.8 z M207.55499999999998 25.4 l0 -12 l4.08 0 l0 25.16 l-0.68 0 l-0.16 -0.16 l-18.32 -18.56 l0 20.16 l4.2 0 l0 -11.8 l-1.48 -1.52 l0 11.88 l-1.28 0 l0 -15.2 l16.6 16.64 l2.56 0 l0 -28 l-6.96 0 l0 11.84 z M191.15499999999997 40 l0 -23.4 l19.16 19.44 l0 -2.12 l-20.56 -20.76 l0 26.84 l1.4 0 z M229.88999999999996 12 l4.2 0 l0 25.32 l-1.44 0 l0 -23.88 l-1.32 0 l0 25.12 l4.04 0 l0 -26.56 l1.44 0 l0 28 l-6.92 0 l0 -28 z M259.505 17.2 l9.56 0 l0 -3.8 l-17 0 l0 1.24 l15.64 0 l0 1.44 l-17.08 0 l0 -4.12 l19.88 0 l0 6.68 l-9.56 0 l0 18.72 l-1.44 0 l0 -20.16 z M256.825 18.64 l-6.2 0 l0 -1.44 l7.64 0 l0 21.32 l4 0 l0 -18.64 l1.44 0 l0 20.12 l-6.88 0 l0 -21.36 z M297.96 40 c-2.44 0 -4.76 -0.64 -6.96 -1.92 c-4.4 -2.52 -7.12 -7.16 -7.12 -12.12 c0 -2.48 0.64 -4.8 1.92 -7 c2.52 -4.32 7.24 -7.04 12.16 -7.04 c2.44 0 4.8 0.64 7 1.88 c4.4 2.56 7.04 7.32 7.04 12.16 c0 2.44 -0.64 4.72 -1.88 6.92 c-2.56 4.4 -7.2 7.12 -12.16 7.12 z M297.96 13.32 c-2.28 0 -4.4 0.56 -6.32 1.68 c-3.88 2.24 -6.28 6.36 -6.28 10.96 c0 2.28 0.56 4.4 1.68 6.32 c2.24 3.88 6.32 6.28 10.92 6.28 c2.28 0 4.4 -0.56 6.36 -1.68 c3.88 -2.24 6.28 -6.32 6.28 -10.92 c0 -2.28 -0.56 -4.4 -1.68 -6.36 c-2.24 -3.88 -6.48 -6.28 -10.96 -6.28 z M297.96 37.28 c-2 0 -3.88 -0.52 -5.68 -1.52 c-3.56 -2.04 -5.76 -5.76 -5.76 -9.8 c0 -2.04 0.52 -3.92 1.52 -5.68 c2.04 -3.52 5.64 -5.6 9.92 -5.6 c2.16 0 4.12 0.48 5.84 1.44 c3.44 1.92 5.44 5.52 5.44 9.84 c0 2.04 -0.48 3.92 -1.44 5.64 c-1.96 3.48 -5.8 5.68 -9.84 5.68 z M297.96 16.08 c-1.8 0 -3.44 0.44 -4.96 1.32 c-3.08 1.76 -4.96 4.92 -4.96 8.56 c0 1.76 0.44 3.4 1.36 4.92 c1.76 3.08 4.88 5 8.56 5 c1.8 0 3.44 -0.44 4.96 -1.36 c3 -1.76 4.92 -5.04 4.92 -8.56 c0 -1.8 -0.44 -3.48 -1.32 -5 c-1.76 -3.04 -5.08 -4.88 -8.56 -4.88 z M297.96 34.68 c-1.56 0 -3.04 -0.4 -4.36 -1.16 c-2.68 -1.56 -4.4 -4.52 -4.4 -7.56 c0 -1.56 0.4 -3.04 1.2 -4.4 c1.56 -2.72 4.32 -4.28 7.56 -4.28 c1.56 0 3 0.4 4.32 1.16 c2.68 1.56 4.24 4.28 4.24 7.52 c0 1.6 -0.36 3.04 -1.08 4.36 c-1.48 2.64 -4.32 4.36 -7.48 4.36 z M297.96 18.72 c-1.28 0 -2.48 0.32 -3.6 0.96 c-2.24 1.32 -3.68 3.68 -3.68 6.28 c0 1.28 0.32 2.48 0.96 3.56 c1.28 2.24 3.6 3.6 6.32 3.6 c1.32 0 2.56 -0.32 3.64 -0.96 c2.2 -1.28 3.52 -3.64 3.52 -6.2 c0 -1.32 -0.32 -2.52 -0.96 -3.64 c-1.28 -2.24 -3.64 -3.6 -6.2 -3.6 z"></path></g></svg>